<svg width="88" height="69" viewBox="0 0 88 69" fill="none" xmlns="http://www.w3.org/2000/svg">
<g id="g45">
<path id="path44" fill-rule="evenodd" clip-rule="evenodd" d="M45.5082 54.0499C48.6701 59.5049 51.2229 63.8296 52.129 65.2659L52.129 65.2663C52.5647 65.957 52.8417 66.1636 52.8611 65.8124C53.7031 50.5466 56.3297 38.5969 60.4166 31.4387C61.2256 30.0217 61.6911 29.183 62.3194 28.4925C63.2914 27.4244 64.6532 26.7108 68.2795 24.7593C70.6381 23.49 77.3649 19.1502 80.4005 16.9393L81.8924 15.8527L80.3394 15.807C79.4852 15.7819 78.8475 15.6553 78.9224 15.5256C79.0943 15.228 83.5777 15.4039 86.0134 15.8038C87.027 15.9701 87.9127 16.009 87.9815 15.8895C88.2248 15.4682 86.0126 12.0002 84.7272 10.7881C82.7165 8.89172 79.1731 7.14349 75.7396 6.35374C72.6583 5.64499 66.2879 5.05835 65.1075 5.37461C64.773 5.46427 63.4453 4.85966 62.1573 4.03104C58.5026 1.68001 51.4652 -0.0477674 45.7421 0.00100928C44.5914 0.0108093 41.7576 0.320434 39.4447 0.68909C32.5442 1.78896 27.9409 4.13727 21.5401 9.8227C14.6439 15.9483 7.28632 24.7811 1.39336 34.0091C0.473845 35.4489 -0.140667 36.5839 0.0278207 36.531C0.196293 36.4782 3.38998 34.9059 7.12492 33.0372C10.8598 31.1684 13.9376 29.7237 13.9645 29.8267C13.9915 29.9297 13.825 30.649 13.5948 31.4251C12.1543 36.2828 11.0139 45.0458 11.2526 49.4239C11.4106 52.3209 12.9473 60.1765 13.3358 60.0725C13.4804 60.0338 14.3219 58.6302 15.2057 56.9535C17.7246 52.1751 24.793 42.5314 25.0563 43.5141C25.106 43.6998 25.1005 44.9227 25.0441 46.2319C24.6841 54.582 26.093 62.4688 28.6794 66.5816L30.0428 68.7496L30.6793 67.466C31.0293 66.76 31.7364 65.2588 32.2504 64.13C34.3087 59.6104 34.9582 58.3615 38.1005 52.8801L41.3684 47.1796L42.1814 48.4464C42.6286 49.1431 44.1257 51.6646 45.5082 54.0499ZM38.6313 45.1766C37.0136 46.8482 32.9414 53.3568 31.0646 57.2706C30.0065 59.4768 29.7666 59.7146 29.5255 58.7964C29.081 57.1044 28.7601 46.9945 29.0124 42.636L29.2996 37.6738L27.7613 37.8483C26.061 38.0412 24.0916 39.0595 22.2609 40.6924C20.6172 42.1586 17.6022 45.7719 16.4352 47.6743C15.9051 48.5385 15.3704 49.1872 15.247 49.1161C14.8973 48.9142 15.4452 41.8604 16.1025 38.1016C16.8018 34.1026 18.5112 27.7563 19.7257 24.6503C20.2007 23.4355 20.5072 22.3939 20.4068 22.3361C20.3064 22.2782 18.3231 23.1528 15.9994 24.2798C13.6757 25.4067 11.705 26.2885 11.62 26.2396C11.4066 26.1164 16.7317 19.9756 19.9079 16.6822C27.7525 8.54816 33.3294 5.33428 41.4552 4.26472C45.772 3.69657 48.1019 3.76239 52.2924 4.57084C58.7026 5.80756 62.1479 8.03079 63.5897 11.861C64.3434 13.8632 64.64 17.9539 64.2339 20.7455C63.983 22.4703 63.8037 22.7666 62.6062 23.4362C57.051 26.5425 52.8367 36.3813 50.2072 52.3828L49.9264 54.0913L46.5235 48.2294L43.1206 42.3675L41.6937 42.927C40.9089 43.2347 39.5308 44.247 38.6313 45.1766Z" fill="white"/>
<g id="g9">
<g id="g8">
<path id="path1" fill-rule="evenodd" clip-rule="evenodd" d="M52.651 7.67944L53.7226 11.679C53.7351 11.7255 53.7286 11.7752 53.7044 11.8169C53.6803 11.8587 53.6405 11.8891 53.5939 11.9015L50.1799 12.8104L47.4383 11.3804C47.3999 11.3604 47.3715 11.3253 47.3599 11.2836C47.3484 11.2419 47.3546 11.1972 47.3773 11.1603L49.0187 8.48854L52.4994 7.59113C52.5656 7.57408 52.6331 7.6135 52.6508 7.67949L52.651 7.67944Z" fill="white"/>
<path id="path3" fill-rule="evenodd" clip-rule="evenodd" d="M39.3321 11.2482L40.4038 15.2477C40.4163 15.2943 40.4468 15.334 40.4886 15.3581C40.5303 15.3822 40.58 15.3887 40.6266 15.3761L44.0376 14.4562L45.6969 11.847C45.7202 11.8104 45.7272 11.7659 45.7164 11.724C45.7055 11.682 45.6778 11.6465 45.6397 11.6259L42.8823 10.1328L39.4192 11.0959C39.3534 11.1143 39.3146 11.1822 39.3323 11.2482L39.3321 11.2482Z" fill="white"/>
</g>
<g id="g7">
<path id="rect1" fill-rule="evenodd" clip-rule="evenodd" d="M42.7901 5.55959L46.7896 4.48792C46.8362 4.47544 46.8859 4.482 46.9276 4.50615C46.9693 4.53029 46.9998 4.57005 47.0122 4.61666L47.9211 8.03069L46.4911 10.7723C46.4711 10.8107 46.436 10.8391 46.3943 10.8507C46.3525 10.8622 46.3079 10.8559 46.271 10.8333L43.5992 9.19184L42.7018 5.71114C42.6848 5.64498 42.7242 5.57744 42.7902 5.55976L42.7901 5.55959Z" fill="white"/>
<path id="path5" fill-rule="evenodd" clip-rule="evenodd" d="M46.2488 18.4675L50.2483 17.3959C50.2948 17.3834 50.3346 17.3529 50.3586 17.3111C50.3827 17.2693 50.3892 17.2197 50.3767 17.1731L49.4567 13.762L46.8475 12.1027C46.811 12.0795 46.7664 12.0724 46.7245 12.0833C46.6826 12.0941 46.6471 12.1219 46.6264 12.16L45.1333 14.9174L46.0965 18.3804C46.1148 18.4463 46.1827 18.4851 46.2487 18.4674L46.2488 18.4675Z" fill="white"/>
</g>
</g>
</g>
</svg>
