<?xml version="1.0" encoding="UTF-8" standalone="no"?>
<!-- Uploaded to: SVG Repo, www.svgrepo.com, Transformed by: SVG Repo Mixer Tools -->

<svg
   width="800"
   height="800"
   viewBox="0 0 256 256"
   preserveAspectRatio="xMinYMin"
   fill="#000000"
   version="1.1"
   id="svg1"
   sodipodi:docname="Git_Godot.svg"
   xml:space="preserve"
   xmlns:inkscape="http://www.inkscape.org/namespaces/inkscape"
   xmlns:sodipodi="http://sodipodi.sourceforge.net/DTD/sodipodi-0.dtd"
   xmlns="http://www.w3.org/2000/svg"
   xmlns:svg="http://www.w3.org/2000/svg"><defs
     id="defs1" /><sodipodi:namedview
     id="namedview1"
     pagecolor="#989898"
     bordercolor="#000000"
     borderopacity="0.25"
     inkscape:showpageshadow="2"
     inkscape:pageopacity="0.0"
     inkscape:pagecheckerboard="0"
     inkscape:deskcolor="#d1d1d1"
     showgrid="false"
     showguides="true"><sodipodi:guide
       position="336.47607,277.19534"
       orientation="0,-1"
       id="guide16"
       inkscape:locked="false" /><inkscape:page
       x="0"
       y="0"
       width="256"
       height="256"
       id="page2"
       margin="0"
       bleed="0" /></sodipodi:namedview><g
     style="fill:none"
     id="g1"
     transform="matrix(2.9119856,0,0,3.0462443,-0.12738921,23.285959)"><g
       id="g45"><path
         id="path44"
         fill-rule="evenodd"
         clip-rule="evenodd"
         d="m 45.5082,54.0499 c 3.1619,5.455 5.7147,9.7797 6.6208,11.216 v 4e-4 c 0.4357,0.6907 0.7127,0.8973 0.7321,0.5461 0.842,-15.2658 3.4686,-27.2155 7.5555,-34.3737 0.809,-1.417 1.2745,-2.2557 1.9028,-2.9462 0.972,-1.0681 2.3338,-1.7817 5.9601,-3.7332 2.3586,-1.2693 9.0854,-5.6091 12.121,-7.82 l 1.4919,-1.0866 -1.553,-0.0457 c -0.8542,-0.0251 -1.4919,-0.1517 -1.417,-0.2814 0.1719,-0.2976 4.6553,-0.1217 7.091,0.2782 1.0136,0.1663 1.8993,0.2052 1.9681,0.0857 0.2433,-0.4213 -1.9689,-3.8893 -3.2543,-5.1014 C 82.7165,8.89172 79.1731,7.14349 75.7396,6.35374 72.6583,5.64499 66.2879,5.05835 65.1075,5.37461 64.773,5.46427 63.4453,4.85966 62.1573,4.03104 58.5026,1.68001 51.4652,-0.0477674 45.7421,0.00100928 44.5914,0.0108093 41.7576,0.320434 39.4447,0.68909 32.5442,1.78896 27.9409,4.13727 21.5401,9.8227 14.6439,15.9483 7.28632,24.7811 1.39336,34.0091 0.473845,35.4489 -0.140667,36.5839 0.0278207,36.531 0.196293,36.4782 3.38998,34.9059 7.12492,33.0372 c 3.73488,-1.8688 6.81268,-3.3135 6.83958,-3.2105 0.027,0.103 -0.1395,0.8223 -0.3697,1.5984 -1.4405,4.8577 -2.5809,13.6207 -2.3422,17.9988 0.158,2.897 1.6947,10.7526 2.0832,10.6486 0.1446,-0.0387 0.9861,-1.4423 1.8699,-3.119 2.5189,-4.7784 9.5873,-14.4221 9.8506,-13.4394 0.0497,0.1857 0.0442,1.4086 -0.0122,2.7178 -0.36,8.3501 1.0489,16.2369 3.6353,20.3497 l 1.3634,2.168 0.6365,-1.2836 c 0.35,-0.706 1.0571,-2.2072 1.5711,-3.336 2.0583,-4.5196 2.7078,-5.7685 5.8501,-11.2499 l 3.2679,-5.7005 0.813,1.2668 c 0.4472,0.6967 1.9443,3.2182 3.3268,5.6035 z m -6.8769,-8.8733 c -1.6177,1.6716 -5.6899,8.1802 -7.5667,12.094 -1.0581,2.2062 -1.298,2.444 -1.5391,1.5258 C 29.081,57.1044 28.7601,46.9945 29.0124,42.636 l 0.2872,-4.9622 -1.5383,0.1745 c -1.7003,0.1929 -3.6697,1.2112 -5.5004,2.8441 -1.6437,1.4662 -4.6587,5.0795 -5.8257,6.9819 -0.5301,0.8642 -1.0648,1.5129 -1.1882,1.4418 -0.3497,-0.2019 0.1982,-7.2557 0.8555,-11.0145 0.6993,-3.999 2.4087,-10.3453 3.6232,-13.4513 0.475,-1.2148 0.7815,-2.2564 0.6811,-2.3142 -0.1004,-0.0579 -2.0837,0.8167 -4.4074,1.9437 -2.3237,1.1269 -4.2944,2.0087 -4.3794,1.9598 -0.2134,-0.1232 5.1117,-6.264 8.2879,-9.5574 C 27.7525,8.54816 33.3294,5.33428 41.4552,4.26472 45.772,3.69657 48.1019,3.76239 52.2924,4.57084 c 6.4102,1.23672 9.8555,3.45995 11.2973,7.29016 0.7537,2.0022 1.0503,6.0929 0.6442,8.8845 -0.2509,1.7248 -0.4302,2.0211 -1.6277,2.6907 -5.5552,3.1063 -9.7695,12.9451 -12.399,28.9466 l -0.2808,1.7085 -3.4029,-5.8619 -3.4029,-5.8619 -1.4269,0.5595 c -0.7848,0.3077 -2.1629,1.32 -3.0624,2.2496 z"
         fill="#ffffff" /><g
         id="g9"><g
           id="g8"><path
             id="path1"
             fill-rule="evenodd"
             clip-rule="evenodd"
             d="m 52.651,7.67944 1.0716,3.99956 c 0.0125,0.0465 0.006,0.0962 -0.0182,0.1379 -0.0241,0.0418 -0.0639,0.0722 -0.1105,0.0846 l -3.414,0.9089 -2.7416,-1.43 c -0.0384,-0.02 -0.0668,-0.0551 -0.0784,-0.0968 -0.0115,-0.0417 -0.0053,-0.0864 0.0174,-0.1233 l 1.6414,-2.67176 3.4807,-0.89741 c 0.0662,-0.01705 0.1337,0.02237 0.1514,0.08836 z"
             fill="#ffffff" /><path
             id="path3"
             fill-rule="evenodd"
             clip-rule="evenodd"
             d="m 39.3321,11.2482 1.0717,3.9995 c 0.0125,0.0466 0.043,0.0863 0.0848,0.1104 0.0417,0.0241 0.0914,0.0306 0.138,0.018 l 3.411,-0.9199 1.6593,-2.6092 c 0.0233,-0.0366 0.0303,-0.0811 0.0195,-0.123 -0.0109,-0.042 -0.0386,-0.0775 -0.0767,-0.0981 l -2.7574,-1.4931 -3.4631,0.9631 c -0.0658,0.0184 -0.1046,0.0863 -0.0869,0.1523 z"
             fill="#ffffff" /></g><g
           id="g7"><path
             id="rect1"
             fill-rule="evenodd"
             clip-rule="evenodd"
             d="m 42.7901,5.55959 3.9995,-1.07167 c 0.0466,-0.01248 0.0963,-0.00592 0.138,0.01823 0.0417,0.02414 0.0722,0.0639 0.0846,0.11051 l 0.9089,3.41403 -1.43,2.74161 c -0.02,0.0384 -0.0551,0.0668 -0.0968,0.0784 -0.0418,0.0115 -0.0864,0.0052 -0.1233,-0.0174 L 43.5992,9.19184 42.7018,5.71114 c -0.017,-0.06616 0.0224,-0.1337 0.0884,-0.15138 z"
             fill="#ffffff" /><path
             id="path5"
             fill-rule="evenodd"
             clip-rule="evenodd"
             d="m 46.2488,18.4675 3.9995,-1.0716 c 0.0465,-0.0125 0.0863,-0.043 0.1103,-0.0848 0.0241,-0.0418 0.0306,-0.0914 0.0181,-0.138 l -0.92,-3.4111 -2.6092,-1.6593 c -0.0365,-0.0232 -0.0811,-0.0303 -0.123,-0.0194 -0.0419,0.0108 -0.0774,0.0386 -0.0981,0.0767 l -1.4931,2.7574 0.9632,3.463 c 0.0183,0.0659 0.0862,0.1047 0.1522,0.087 z"
             fill="#ffffff" /></g></g></g></g></svg>
